<svg version="1.1" id="Layer_1" xmlns="http://www.w3.org/2000/svg" xmlns:xlink="http://www.w3.org/1999/xlink" x="0px" y="0px"
	 width="100%" viewBox="0 0 500 688" enable-background="new 0 0 500 688" xml:space="preserve">
<path fill="#FDFFFE" opacity="1.000000" stroke="none" 
	d="
M251.000000,689.000000 
	C167.350815,689.000000 84.201645,689.000000 1.052467,689.000000 
	C1.034979,688.850830 1.002161,688.701721 1.002160,688.552551 
	C0.999985,459.434082 1.000000,230.315613 1.000000,1.098571 
	C167.565857,1.098571 334.131775,1.098571 500.848877,1.098571 
	C500.848877,230.333252 500.848877,459.666626 500.848877,689.000000 
	C417.798035,689.000000 334.649017,689.000000 251.000000,689.000000 
M92.631996,137.871704 
	C140.569077,156.464859 188.519409,175.024063 236.419052,193.713165 
	C240.414444,195.272064 243.900314,195.296509 247.910522,193.724899 
	C291.755585,176.542007 335.655365,159.498703 379.549469,142.441162 
	C382.117035,141.443405 384.763794,140.649521 387.504089,139.716339 
	C387.504089,159.046570 387.504089,177.774963 387.504089,196.847870 
	C383.120453,196.847870 379.140564,196.806808 375.161835,196.857971 
	C369.837708,196.926422 368.115814,198.795029 369.123505,203.961945 
	C371.479462,216.042038 374.064423,228.077271 376.481995,240.145630 
	C377.179901,243.629532 378.995972,245.281754 382.672455,245.193314 
	C389.001190,245.041077 395.339020,245.034119 401.667511,245.190048 
	C405.552002,245.285782 407.369141,243.603302 408.088867,239.832321 
	C410.396240,227.742935 412.951111,215.701035 415.340851,203.627029 
	C416.296204,198.800430 414.691132,196.940262 409.623962,196.860687 
	C405.510529,196.796066 401.395233,196.847580 396.752777,196.847580 
	C396.752777,194.414032 396.752838,192.618454 396.752808,190.822876 
	C396.752380,172.658981 396.640991,154.493958 396.826874,136.331970 
	C396.875366,131.592453 395.059143,129.140182 390.659790,127.451401 
	C342.812683,109.084007 295.048401,90.500443 247.166595,72.224648 
	C244.220276,71.100090 240.100540,71.086479 237.157593,72.209320 
	C188.806473,90.656982 140.545929,109.342583 92.326881,128.133499 
	C90.515457,128.839417 88.269890,131.077728 88.160385,132.730103 
	C88.059044,134.259262 90.555397,135.960602 92.631996,137.871704 
M188.543610,257.959198 
	C193.348389,259.304535 198.265747,260.342682 202.936310,262.054291 
	C215.656952,266.716034 229.248581,269.577789 239.465164,279.643951 
	C240.408157,280.573059 243.799973,279.969543 245.451965,279.024323 
	C248.709213,277.160583 251.248230,273.898163 254.611725,272.392090 
	C262.636871,268.798676 270.840851,265.496155 279.202057,262.783417 
	C298.722137,256.450256 318.639984,251.806458 339.270203,251.281769 
	C342.187561,251.207596 345.141449,252.813629 348.089294,253.601257 
	C349.891998,254.082916 352.270264,255.388077 353.389832,254.698792 
	C354.804749,253.827713 355.874298,251.321808 355.924194,249.489258 
	C356.169037,240.498566 356.033661,231.497299 356.017487,222.499786 
	C356.004822,215.440933 354.334534,214.149017 347.234894,215.226776 
	C338.683624,216.524872 330.134521,218.389481 321.534973,218.719894 
	C286.929657,220.049469 252.307983,221.506088 217.686844,221.657074 
	C197.758743,221.743988 177.807861,219.585159 157.892288,218.100937 
	C149.944901,217.508652 142.059906,216.045883 134.156845,214.907532 
	C130.782867,214.421555 128.189697,215.536667 128.113205,219.045517 
	C127.880875,229.703812 127.888977,240.373383 128.108521,251.032272 
	C128.186630,254.824036 132.200165,256.883942 134.843948,254.424149 
	C139.252335,250.322556 144.521500,250.715668 149.406860,251.375931 
	C162.238739,253.110138 174.967529,255.606979 188.543610,257.959198 
M274.464508,213.008926 
	C301.572052,210.914536 328.679596,208.820145 355.726624,206.730438 
	C355.726624,190.827011 355.726624,176.270691 355.726624,161.299164 
	C353.643433,162.034378 351.926422,162.590149 350.246185,163.240768 
	C316.582214,176.276123 282.903107,189.272751 249.283173,202.420746 
	C244.312195,204.364807 239.767776,204.312973 234.810089,202.371017 
	C205.998779,191.085419 177.121262,179.968781 148.261322,168.807449 
	C141.681030,166.262558 135.081833,163.766510 128.288666,161.170547 
	C128.288666,176.513580 128.288666,191.109543 128.288666,205.157455 
	C176.620117,213.353256 225.023224,213.660675 274.464508,213.008926 
M299.347595,425.153931 
	C302.557861,425.630707 303.269196,424.020905 303.163879,421.112122 
	C302.621521,406.130554 302.273102,391.141937 301.732941,376.160278 
	C301.603760,372.576630 301.000610,369.010132 300.626343,365.536438 
	C299.667816,365.357269 299.186554,365.188843 298.705170,365.188507 
	C267.876068,365.167450 237.046753,365.211365 206.218155,365.083221 
	C202.578827,365.068085 202.202423,366.932922 202.077835,369.719391 
	C201.519897,382.197632 200.786072,394.668518 200.302200,407.149292 
	C200.073196,413.056152 200.262894,418.979279 200.262894,425.156036 
	C233.406693,425.156036 265.892395,425.156036 299.347595,425.153931 
M295.356110,494.141266 
	C297.101105,494.040649 298.846100,493.940002 301.117218,493.809052 
	C301.931366,473.730133 302.722870,454.208740 303.521271,434.517639 
	C268.479279,434.517639 234.477814,434.517639 199.697815,434.517639 
	C200.622467,454.576233 201.527710,474.213867 202.446335,494.141479 
	C233.843475,494.141479 264.117126,494.141479 295.356110,494.141266 
M292.222504,298.231995 
	C292.039337,297.081604 291.737701,295.935791 291.693237,294.780090 
	C291.485992,289.388123 288.938751,287.825317 283.461975,287.978699 
	C267.656067,288.421326 251.829727,288.135132 236.011414,288.135132 
	C228.541397,288.135132 221.071381,288.135132 212.415024,288.135132 
	C209.167618,310.789673 205.955093,333.200684 202.678497,356.058807 
	C235.751663,356.058807 267.615784,356.058807 300.811157,356.058807 
	C297.970795,336.745789 295.200073,317.906189 292.222504,298.231995 
M271.499451,563.154602 
	C276.497253,563.154480 281.509003,562.926880 286.488190,563.231201 
	C290.036194,563.448059 291.592377,562.264038 292.037231,558.720215 
	C292.657715,553.777710 293.853790,548.909912 294.555328,543.974792 
	C296.467529,530.523682 298.249451,517.054016 300.121582,503.308411 
	C267.677856,503.308411 235.954681,503.308411 203.122864,503.308411 
	C206.031540,523.433411 208.872360,543.088867 211.772507,563.154785 
	C231.927872,563.154785 251.213821,563.154785 271.499451,563.154602 
M338.500000,425.157257 
	C355.905365,425.157257 373.310730,425.157257 392.000153,425.157257 
	C389.849335,404.590027 387.800720,384.999969 385.766632,365.548828 
	C359.660614,365.548828 334.940765,365.548828 310.081726,365.548828 
	C310.880280,385.529358 311.662445,405.099854 312.464081,425.157410 
	C320.914795,425.157410 329.207397,425.157410 338.500000,425.157257 
M192.600220,383.074585 
	C192.895142,377.305298 193.190079,371.535980 193.482773,365.810547 
	C192.638855,365.514404 192.183365,365.215240 191.727402,365.214508 
	C168.398148,365.177795 145.068695,365.204498 121.739777,365.104706 
	C118.794548,365.092102 118.141144,366.498138 117.876167,369.015930 
	C116.240768,384.555725 114.444206,400.078674 112.834892,415.621063 
	C112.519440,418.667603 112.789459,421.774719 112.789459,424.770691 
	C139.030502,424.770691 164.937653,424.770691 191.049774,424.770691 
	C191.532425,410.928101 192.001862,397.464142 192.600220,383.074585 
M191.766632,447.632446 
	C191.556931,443.332336 191.347229,439.032227 191.125107,434.477356 
	C164.889313,434.477356 139.004318,434.477356 112.754868,434.477356 
	C112.629311,454.807281 115.130013,474.449097 119.245224,493.785461 
	C144.443710,493.785461 169.016006,493.785461 193.556870,493.785461 
	C192.954529,478.488312 192.366135,463.545685 191.766632,447.632446 
M373.465454,494.141296 
	C375.298340,494.141449 377.168182,493.906860 378.956757,494.188385 
	C383.290710,494.870636 384.722198,492.904205 385.227448,488.811859 
	C386.551544,478.087463 388.519073,467.440277 389.748230,456.707123 
	C390.588898,449.366058 390.620392,441.932281 391.017792,434.461914 
	C364.274078,434.461914 338.368713,434.461914 312.408051,434.461914 
	C311.543488,454.347443 310.693146,473.904877 309.813324,494.141449 
	C330.932983,494.141449 351.703369,494.141449 373.465454,494.141296 
M127.967072,329.503632 
	C125.437820,338.194366 122.908577,346.885101 120.290039,355.882629 
	C122.281845,356.238708 123.239059,356.557648 124.196846,356.559357 
	C146.342514,356.599121 168.488464,356.557281 190.633728,356.664764 
	C194.123581,356.681702 194.598038,354.813965 194.924744,352.002289 
	C196.459290,338.795959 198.045227,325.593018 199.860077,312.422943 
	C200.958527,304.451782 202.508041,296.542755 203.933807,288.140808 
	C185.061050,288.140808 166.768799,288.061890 148.480560,288.295624 
	C147.067596,288.313690 145.067551,290.251923 144.382034,291.768524 
	C138.839874,304.029449 133.547119,316.403107 127.967072,329.503632 
M306.298523,332.132538 
	C307.268982,340.148499 308.239410,348.164490 309.179565,355.930359 
	C334.037140,355.930359 358.220459,355.930359 382.790558,355.930359 
	C377.387817,332.824310 369.670105,311.134186 358.395081,290.800873 
	C357.614868,289.393860 355.015839,288.269653 353.248169,288.248993 
	C336.770691,288.056366 320.290009,288.125275 303.810303,288.151489 
	C302.549652,288.153473 301.289398,288.407166 299.904419,288.557373 
	C302.030884,303.032104 304.102997,317.136749 306.298523,332.132538 
M195.207565,508.265198 
	C195.015701,506.655396 194.823837,505.045593 194.623123,503.361572 
	C170.133255,503.361572 145.964935,503.361572 121.419540,503.361572 
	C126.285637,523.804443 133.385834,542.929138 142.912552,561.126282 
	C143.547668,562.339478 146.183243,563.054749 147.896240,563.069214 
	C164.722549,563.210999 181.550507,563.161682 198.377991,563.143066 
	C199.825272,563.141418 201.272354,562.970581 202.480698,562.893555 
	C200.061890,544.730713 197.692963,526.942505 195.207565,508.265198 
M338.500000,502.988525 
	C328.704132,502.988525 318.908264,502.988525 309.118591,502.988525 
	C306.332092,523.182434 303.615295,542.871216 300.894928,562.585876 
	C301.621918,562.807678 302.087891,563.073364 302.554413,563.074402 
	C320.717072,563.115112 338.880615,563.206665 357.040833,563.005493 
	C358.458496,562.989807 360.515137,561.194519 361.153839,559.735535 
	C366.220917,548.161377 371.277557,536.568420 375.795410,524.773560 
	C378.431915,517.890381 380.073242,510.625946 382.322662,502.988495 
	C367.459564,502.988495 353.479797,502.988495 338.500000,502.988525 
M86.498375,434.131927 
	C71.092934,434.131927 55.687500,434.131927 39.954563,434.131927 
	C40.459770,453.617889 43.355507,471.902557 48.592316,489.876495 
	C49.587097,493.290802 51.016300,494.254303 54.431004,494.220276 
	C71.405556,494.051117 88.382721,494.148499 105.358932,494.130585 
	C106.816147,494.129059 108.273193,493.970825 109.290604,493.911163 
	C107.092674,473.864410 104.931068,454.148926 102.736412,434.132050 
	C97.798340,434.132050 92.647911,434.132050 86.498375,434.131927 
M462.786743,448.115479 
	C462.786743,443.546936 462.786743,438.978363 462.786743,434.410339 
	C441.564728,434.410339 420.982849,434.410339 400.663239,434.410339 
	C398.462067,454.404510 396.294403,474.094330 394.088928,494.127716 
	C413.065613,494.127716 432.188293,494.198059 451.307068,493.955261 
	C452.470581,493.940460 454.321716,491.590515 454.636719,490.074432 
	C457.472168,476.426819 460.035492,462.722687 462.786743,448.115479 
M97.388535,425.158600 
	C99.328903,425.158600 101.269272,425.158600 102.776024,425.158600 
	C104.752914,404.900940 106.664474,385.312775 108.583138,365.651794 
	C108.459084,365.586304 108.168282,365.298859 107.876511,365.297821 
	C89.415070,365.235321 70.953011,365.134735 52.493305,365.298218 
	C51.308006,365.308716 49.444199,367.186798 49.079700,368.519806 
	C46.892025,376.520264 44.561058,384.534729 43.215710,392.699036 
	C41.476662,403.252441 40.617558,413.950897 39.312969,425.158936 
	C59.223335,425.158936 77.817787,425.158936 97.388535,425.158600 
M396.755127,382.862854 
	C397.979523,396.875519 399.203888,410.888184 400.425751,424.872070 
	C421.312805,424.872070 441.893311,424.872070 462.502563,424.872070 
	C462.711487,424.151764 462.957550,423.693451 462.961670,423.232971 
	C463.130890,404.262543 459.685028,385.851654 453.988556,367.849915 
	C453.582886,366.567810 450.833008,365.283264 449.157745,365.262817 
	C433.174377,365.067474 417.187714,365.144836 401.201996,365.143951 
	C398.925903,365.143829 396.649780,365.143951 393.939880,365.143951 
	C394.890808,371.209625 395.736115,376.601807 396.755127,382.862854 
M286.009460,584.487488 
	C287.009949,580.498962 288.010406,576.510437 289.065979,572.302246 
	C264.067841,572.302246 239.536957,572.302246 214.822815,572.302246 
	C214.927750,573.604858 214.818115,574.646057 215.113831,575.555420 
	C219.729126,589.747253 223.777222,604.170105 229.310211,617.997803 
	C232.133606,625.053894 237.070145,631.528931 242.098495,637.364441 
	C247.190903,643.274231 255.620636,642.979675 261.192230,637.389221 
	C264.556091,634.013977 268.094940,630.277527 269.921265,626.004944 
	C275.647430,612.609131 280.598755,598.882080 286.009460,584.487488 
M118.497894,288.131927 
	C111.831810,288.131805 105.144936,287.829803 98.510323,288.286652 
	C96.011696,288.458740 92.939621,289.774750 91.312057,291.615387 
	C79.113197,305.411438 69.177879,320.779755 61.113224,337.319824 
	C58.173939,343.348053 55.774158,349.639374 52.997684,356.115173 
	C54.582600,356.385864 55.224815,356.590546 55.867298,356.591370 
	C73.199074,356.613342 90.531319,356.553802 107.862289,356.675964 
	C110.919662,356.697510 111.669464,355.306091 112.301468,352.648193 
	C116.895126,333.329773 123.175995,314.583557 131.903671,296.704712 
	C133.192535,294.064453 134.482971,291.424988 136.091751,288.132050 
	C130.058258,288.132050 124.777420,288.132050 118.497894,288.131927 
M446.217743,346.263763 
	C437.796326,326.341614 426.554871,308.145966 412.264221,291.928741 
	C410.471863,289.894775 407.023376,288.441010 404.262268,288.301575 
	C395.297241,287.848846 386.295074,288.132080 377.307190,288.131989 
	C374.253479,288.131958 371.199768,288.131958 367.953522,288.131958 
	C368.193909,289.470215 368.168793,289.998505 368.379059,290.405029 
	C378.668060,310.301086 386.044983,331.260284 391.083588,353.048645 
	C391.837006,356.306610 393.739807,356.669098 396.498535,356.657410 
	C412.975983,356.587738 429.453949,356.633209 445.931641,356.600922 
	C447.188660,356.598450 448.445068,356.293304 450.243896,356.057892 
	C448.891541,352.719360 447.722687,349.833862 446.217743,346.263763 
M402.529602,502.987030 
	C400.697723,502.987030 398.814209,503.264069 397.043854,502.934052 
	C392.137390,502.019531 390.915833,504.547546 389.506287,508.821075 
	C384.307129,524.584167 378.460876,540.134521 372.801575,555.744385 
	C371.974335,558.026184 370.841614,560.197205 369.522125,563.154968 
	C372.151245,563.154968 373.934113,563.154480 375.717010,563.155029 
	C387.540833,563.158691 399.375916,562.877197 411.181519,563.342834 
	C414.654205,563.479736 416.557587,562.685974 418.546387,560.084412 
	C428.587738,546.949219 437.470062,533.126038 444.182068,517.978943 
	C446.290619,513.220520 448.233337,508.388580 450.505768,502.987030 
	C434.137329,502.987030 418.828217,502.987030 402.529602,502.987030 
M122.003624,535.441284 
	C119.116806,526.078247 116.012527,516.774048 113.458725,507.321045 
	C112.539566,503.918732 111.228218,502.862610 107.738487,502.901520 
	C90.932755,503.088928 74.123787,502.981018 57.315994,503.000153 
	C56.083363,503.001556 54.850929,503.179352 53.192570,503.308258 
	C60.334549,522.988831 70.391098,540.465576 82.269646,557.013977 
	C85.496475,561.509399 88.730972,563.704224 94.759247,563.370361 
	C107.516151,562.663757 120.339386,563.155029 133.529190,563.155029 
	C129.639923,553.873718 125.934364,545.030762 122.003624,535.441284 
M230.272842,638.796265 
	C219.245163,622.064575 212.748962,603.478516 207.931015,584.205322 
	C206.931824,580.208191 205.923340,576.213440 204.972519,572.430054 
	C186.208191,572.430054 167.892822,572.430054 149.031891,572.430054 
	C160.403000,591.259277 173.609344,607.571716 190.794739,620.453247 
	C202.509567,629.234253 215.253342,635.832397 230.272842,638.796265 
M295.556671,584.001221 
	C290.368469,603.120056 284.624481,622.011292 272.648102,638.571106 
	C295.269897,638.881836 343.315063,599.398743 353.683777,572.293213 
	C335.224243,572.293213 316.849030,572.293213 298.375183,572.293213 
	C297.474365,576.108826 296.635925,579.660034 295.556671,584.001221 
M376.362030,600.880920 
	C387.700531,592.517151 398.330231,583.385071 408.330200,571.987976 
	C394.637695,571.987976 382.024902,572.116272 369.417755,571.906860 
	C365.814911,571.847046 363.770905,572.958374 361.955994,576.146179 
	C352.233093,593.224731 339.801605,608.157593 325.196960,621.285583 
	C322.174622,624.002319 319.043243,626.597900 315.962097,629.249268 
	C316.232788,629.657715 316.503448,630.066223 316.774139,630.474670 
	C338.487000,625.001160 357.582397,614.079407 376.362030,600.880920 
M165.535614,608.943604 
	C157.795258,598.562439 149.711945,588.412354 142.485107,577.685242 
	C139.634964,573.454590 136.978500,571.663330 131.876114,571.862366 
	C121.242302,572.277161 110.580986,571.975830 99.931053,572.001770 
	C98.561157,572.005127 97.191750,572.203857 95.472260,572.339722 
	C119.414177,599.367371 148.621490,617.445007 181.600571,629.807678 
	C182.745316,630.236755 184.352463,629.432312 186.330383,629.106140 
	C182.389359,625.383057 179.138763,622.373901 175.959229,619.291565 
	C172.614563,616.049072 169.337830,612.736572 165.535614,608.943604 
z"/>
<path fill="#43B883" opacity="1.000000" stroke="none" 
	d="
M92.269882,137.728912 
	C90.555397,135.960602 88.059044,134.259262 88.160385,132.730103 
	C88.269890,131.077728 90.515457,128.839417 92.326881,128.133499 
	C140.545929,109.342583 188.806473,90.656982 237.157593,72.209320 
	C240.100540,71.086479 244.220276,71.100090 247.166595,72.224648 
	C295.048401,90.500443 342.812683,109.084007 390.659790,127.451401 
	C395.059143,129.140182 396.875366,131.592453 396.826874,136.331970 
	C396.640991,154.493958 396.752380,172.658981 396.752808,190.822876 
	C396.752838,192.618454 396.752777,194.414032 396.752777,196.847580 
	C401.395233,196.847580 405.510529,196.796066 409.623962,196.860687 
	C414.691132,196.940262 416.296204,198.800430 415.340851,203.627029 
	C412.951111,215.701035 410.396240,227.742935 408.088867,239.832321 
	C407.369141,243.603302 405.552002,245.285782 401.667511,245.190048 
	C395.339020,245.034119 389.001190,245.041077 382.672455,245.193314 
	C378.995972,245.281754 377.179901,243.629532 376.481995,240.145630 
	C374.064423,228.077271 371.479462,216.042038 369.123505,203.961945 
	C368.115814,198.795029 369.837708,196.926422 375.161835,196.857971 
	C379.140564,196.806808 383.120453,196.847870 387.504089,196.847870 
	C387.504089,177.774963 387.504089,159.046570 387.504089,139.716339 
	C384.763794,140.649521 382.117035,141.443405 379.549469,142.441162 
	C335.655365,159.498703 291.755585,176.542007 247.910522,193.724899 
	C243.900314,195.296509 240.414444,195.272064 236.419052,193.713165 
	C188.519409,175.024063 140.569077,156.464859 92.269882,137.728912 
z"/>
<path fill="#43B883" opacity="1.000000" stroke="none" 
	d="
M188.140503,257.879578 
	C174.967529,255.606979 162.238739,253.110138 149.406860,251.375931 
	C144.521500,250.715668 139.252335,250.322556 134.843948,254.424149 
	C132.200165,256.883942 128.186630,254.824036 128.108521,251.032272 
	C127.888977,240.373383 127.880875,229.703812 128.113205,219.045517 
	C128.189697,215.536667 130.782867,214.421555 134.156845,214.907532 
	C142.059906,216.045883 149.944901,217.508652 157.892288,218.100937 
	C177.807861,219.585159 197.758743,221.743988 217.686844,221.657074 
	C252.307983,221.506088 286.929657,220.049469 321.534973,218.719894 
	C330.134521,218.389481 338.683624,216.524872 347.234894,215.226776 
	C354.334534,214.149017 356.004822,215.440933 356.017487,222.499786 
	C356.033661,231.497299 356.169037,240.498566 355.924194,249.489258 
	C355.874298,251.321808 354.804749,253.827713 353.389832,254.698792 
	C352.270264,255.388077 349.891998,254.082916 348.089294,253.601257 
	C345.141449,252.813629 342.187561,251.207596 339.270203,251.281769 
	C318.639984,251.806458 298.722137,256.450256 279.202057,262.783417 
	C270.840851,265.496155 262.636871,268.798676 254.611725,272.392090 
	C251.248230,273.898163 248.709213,277.160583 245.451965,279.024323 
	C243.799973,279.969543 240.408157,280.573059 239.465164,279.643951 
	C229.248581,269.577789 215.656952,266.716034 202.936310,262.054291 
	C198.265747,260.342682 193.348389,259.304535 188.140503,257.879578 
z"/>
<path fill="#44B783" opacity="1.000000" stroke="none" 
	d="
M273.969421,213.013458 
	C225.023224,213.660675 176.620117,213.353256 128.288666,205.157455 
	C128.288666,191.109543 128.288666,176.513580 128.288666,161.170547 
	C135.081833,163.766510 141.681030,166.262558 148.261322,168.807449 
	C177.121262,179.968781 205.998779,191.085419 234.810089,202.371017 
	C239.767776,204.312973 244.312195,204.364807 249.283173,202.420746 
	C282.903107,189.272751 316.582214,176.276123 350.246185,163.240768 
	C351.926422,162.590149 353.643433,162.034378 355.726624,161.299164 
	C355.726624,176.270691 355.726624,190.827011 355.726624,206.730438 
	C328.679596,208.820145 301.572052,210.914536 273.969421,213.013458 
z"/>
<path fill="#44B883" opacity="1.000000" stroke="none" 
	d="
M298.862854,425.154968 
	C265.892395,425.156036 233.406693,425.156036 200.262894,425.156036 
	C200.262894,418.979279 200.073196,413.056152 200.302200,407.149292 
	C200.786072,394.668518 201.519897,382.197632 202.077835,369.719391 
	C202.202423,366.932922 202.578827,365.068085 206.218155,365.083221 
	C237.046753,365.211365 267.876068,365.167450 298.705170,365.188507 
	C299.186554,365.188843 299.667816,365.357269 300.626343,365.536438 
	C301.000610,369.010132 301.603760,372.576630 301.732941,376.160278 
	C302.273102,391.141937 302.621521,406.130554 303.163879,421.112122 
	C303.269196,424.020905 302.557861,425.630707 298.862854,425.154968 
z"/>
<path fill="#43B883" opacity="1.000000" stroke="none" 
	d="
M294.873413,494.141357 
	C264.117126,494.141479 233.843475,494.141479 202.446335,494.141479 
	C201.527710,474.213867 200.622467,454.576233 199.697815,434.517639 
	C234.477814,434.517639 268.479279,434.517639 303.521271,434.517639 
	C302.722870,454.208740 301.931366,473.730133 301.117218,493.809052 
	C298.846100,493.940002 297.101105,494.040649 294.873413,494.141357 
z"/>
<path fill="#43B883" opacity="1.000000" stroke="none" 
	d="
M292.325928,298.649292 
	C295.200073,317.906189 297.970795,336.745789 300.811157,356.058807 
	C267.615784,356.058807 235.751663,356.058807 202.678497,356.058807 
	C205.955093,333.200684 209.167618,310.789673 212.415024,288.135132 
	C221.071381,288.135132 228.541397,288.135132 236.011414,288.135132 
	C251.829727,288.135132 267.656067,288.421326 283.461975,287.978699 
	C288.938751,287.825317 291.485992,289.388123 291.693237,294.780090 
	C291.737701,295.935791 292.039337,297.081604 292.325928,298.649292 
z"/>
<path fill="#43B783" opacity="1.000000" stroke="none" 
	d="
M270.999603,563.154663 
	C251.213821,563.154785 231.927872,563.154785 211.772507,563.154785 
	C208.872360,543.088867 206.031540,523.433411 203.122864,503.308411 
	C235.954681,503.308411 267.677856,503.308411 300.121582,503.308411 
	C298.249451,517.054016 296.467529,530.523682 294.555328,543.974792 
	C293.853790,548.909912 292.657715,553.777710 292.037231,558.720215 
	C291.592377,562.264038 290.036194,563.448059 286.488190,563.231201 
	C281.509003,562.926880 276.497253,563.154480 270.999603,563.154663 
z"/>
<path fill="#44B883" opacity="1.000000" stroke="none" 
	d="
M338.000000,425.157349 
	C329.207397,425.157410 320.914795,425.157410 312.464081,425.157410 
	C311.662445,405.099854 310.880280,385.529358 310.081726,365.548828 
	C334.940765,365.548828 359.660614,365.548828 385.766632,365.548828 
	C387.800720,384.999969 389.849335,404.590027 392.000153,425.157257 
	C373.310730,425.157257 355.905365,425.157257 338.000000,425.157349 
z"/>
<path fill="#44B883" opacity="1.000000" stroke="none" 
	d="
M192.535767,383.537384 
	C192.001862,397.464142 191.532425,410.928101 191.049774,424.770691 
	C164.937653,424.770691 139.030502,424.770691 112.789459,424.770691 
	C112.789459,421.774719 112.519440,418.667603 112.834892,415.621063 
	C114.444206,400.078674 116.240768,384.555725 117.876167,369.015930 
	C118.141144,366.498138 118.794548,365.092102 121.739777,365.104706 
	C145.068695,365.204498 168.398148,365.177795 191.727402,365.214508 
	C192.183365,365.215240 192.638855,365.514404 193.482773,365.810547 
	C193.190079,371.535980 192.895142,377.305298 192.535767,383.537384 
z"/>
<path fill="#43B883" opacity="1.000000" stroke="none" 
	d="
M191.772186,448.117737 
	C192.366135,463.545685 192.954529,478.488312 193.556870,493.785461 
	C169.016006,493.785461 144.443710,493.785461 119.245224,493.785461 
	C115.130013,474.449097 112.629311,454.807281 112.754868,434.477356 
	C139.004318,434.477356 164.889313,434.477356 191.125107,434.477356 
	C191.347229,439.032227 191.556931,443.332336 191.772186,448.117737 
z"/>
<path fill="#43B883" opacity="1.000000" stroke="none" 
	d="
M372.969604,494.141357 
	C351.703369,494.141449 330.932983,494.141449 309.813324,494.141449 
	C310.693146,473.904877 311.543488,454.347443 312.408051,434.461914 
	C338.368713,434.461914 364.274078,434.461914 391.017792,434.461914 
	C390.620392,441.932281 390.588898,449.366058 389.748230,456.707123 
	C388.519073,467.440277 386.551544,478.087463 385.227448,488.811859 
	C384.722198,492.904205 383.290710,494.870636 378.956757,494.188385 
	C377.168182,493.906860 375.298340,494.141449 372.969604,494.141357 
z"/>
<path fill="#43B883" opacity="1.000000" stroke="none" 
	d="
M128.072662,329.122986 
	C133.547119,316.403107 138.839874,304.029449 144.382034,291.768524 
	C145.067551,290.251923 147.067596,288.313690 148.480560,288.295624 
	C166.768799,288.061890 185.061050,288.140808 203.933807,288.140808 
	C202.508041,296.542755 200.958527,304.451782 199.860077,312.422943 
	C198.045227,325.593018 196.459290,338.795959 194.924744,352.002289 
	C194.598038,354.813965 194.123581,356.681702 190.633728,356.664764 
	C168.488464,356.557281 146.342514,356.599121 124.196846,356.559357 
	C123.239059,356.557648 122.281845,356.238708 120.290039,355.882629 
	C122.908577,346.885101 125.437820,338.194366 128.072662,329.122986 
z"/>
<path fill="#43B883" opacity="1.000000" stroke="none" 
	d="
M306.236816,331.686951 
	C304.102997,317.136749 302.030884,303.032104 299.904419,288.557373 
	C301.289398,288.407166 302.549652,288.153473 303.810303,288.151489 
	C320.290009,288.125275 336.770691,288.056366 353.248169,288.248993 
	C355.015839,288.269653 357.614868,289.393860 358.395081,290.800873 
	C369.670105,311.134186 377.387817,332.824310 382.790558,355.930359 
	C358.220459,355.930359 334.037140,355.930359 309.179565,355.930359 
	C308.239410,348.164490 307.268982,340.148499 306.236816,331.686951 
z"/>
<path fill="#43B783" opacity="1.000000" stroke="none" 
	d="
M195.265808,508.709717 
	C197.692963,526.942505 200.061890,544.730713 202.480698,562.893555 
	C201.272354,562.970581 199.825272,563.141418 198.377991,563.143066 
	C181.550507,563.161682 164.722549,563.210999 147.896240,563.069214 
	C146.183243,563.054749 143.547668,562.339478 142.912552,561.126282 
	C133.385834,542.929138 126.285637,523.804443 121.419540,503.361572 
	C145.964935,503.361572 170.133255,503.361572 194.623123,503.361572 
	C194.823837,505.045593 195.015701,506.655396 195.265808,508.709717 
z"/>
<path fill="#43B783" opacity="1.000000" stroke="none" 
	d="
M339.000000,502.988525 
	C353.479797,502.988495 367.459564,502.988495 382.322662,502.988495 
	C380.073242,510.625946 378.431915,517.890381 375.795410,524.773560 
	C371.277557,536.568420 366.220917,548.161377 361.153839,559.735535 
	C360.515137,561.194519 358.458496,562.989807 357.040833,563.005493 
	C338.880615,563.206665 320.717072,563.115112 302.554413,563.074402 
	C302.087891,563.073364 301.621918,562.807678 300.894928,562.585876 
	C303.615295,542.871216 306.332092,523.182434 309.118591,502.988525 
	C318.908264,502.988525 328.704132,502.988525 339.000000,502.988525 
z"/>
<path fill="#44B883" opacity="1.000000" stroke="none" 
	d="
M86.997925,434.131989 
	C92.647911,434.132050 97.798340,434.132050 102.736412,434.132050 
	C104.931068,454.148926 107.092674,473.864410 109.290604,493.911163 
	C108.273193,493.970825 106.816147,494.129059 105.358932,494.130585 
	C88.382721,494.148499 71.405556,494.051117 54.431004,494.220276 
	C51.016300,494.254303 49.587097,493.290802 48.592316,489.876495 
	C43.355507,471.902557 40.459770,453.617889 39.954563,434.131927 
	C55.687500,434.131927 71.092934,434.131927 86.997925,434.131989 
z"/>
<path fill="#44B883" opacity="1.000000" stroke="none" 
	d="
M462.732697,448.575317 
	C460.035492,462.722687 457.472168,476.426819 454.636719,490.074432 
	C454.321716,491.590515 452.470581,493.940460 451.307068,493.955261 
	C432.188293,494.198059 413.065613,494.127716 394.088928,494.127716 
	C396.294403,474.094330 398.462067,454.404510 400.663239,434.410339 
	C420.982849,434.410339 441.564728,434.410339 462.786743,434.410339 
	C462.786743,438.978363 462.786743,443.546936 462.732697,448.575317 
z"/>
<path fill="#44B883" opacity="1.000000" stroke="none" 
	d="
M96.900391,425.158752 
	C77.817787,425.158936 59.223335,425.158936 39.312969,425.158936 
	C40.617558,413.950897 41.476662,403.252441 43.215710,392.699036 
	C44.561058,384.534729 46.892025,376.520264 49.079700,368.519806 
	C49.444199,367.186798 51.308006,365.308716 52.493305,365.298218 
	C70.953011,365.134735 89.415070,365.235321 107.876511,365.297821 
	C108.168282,365.298859 108.459084,365.586304 108.583138,365.651794 
	C106.664474,385.312775 104.752914,404.900940 102.776024,425.158600 
	C101.269272,425.158600 99.328903,425.158600 96.900391,425.158752 
z"/>
<path fill="#44B883" opacity="1.000000" stroke="none" 
	d="
M396.668274,382.428406 
	C395.736115,376.601807 394.890808,371.209625 393.939880,365.143951 
	C396.649780,365.143951 398.925903,365.143829 401.201996,365.143951 
	C417.187714,365.144836 433.174377,365.067474 449.157745,365.262817 
	C450.833008,365.283264 453.582886,366.567810 453.988556,367.849915 
	C459.685028,385.851654 463.130890,404.262543 462.961670,423.232971 
	C462.957550,423.693451 462.711487,424.151764 462.502563,424.872070 
	C441.893311,424.872070 421.312805,424.872070 400.425751,424.872070 
	C399.203888,410.888184 397.979523,396.875519 396.668274,382.428406 
z"/>
<path fill="#43B883" opacity="1.000000" stroke="none" 
	d="
M285.929810,584.885376 
	C280.598755,598.882080 275.647430,612.609131 269.921265,626.004944 
	C268.094940,630.277527 264.556091,634.013977 261.192230,637.389221 
	C255.620636,642.979675 247.190903,643.274231 242.098495,637.364441 
	C237.070145,631.528931 232.133606,625.053894 229.310211,617.997803 
	C223.777222,604.170105 219.729126,589.747253 215.113831,575.555420 
	C214.818115,574.646057 214.927750,573.604858 214.822815,572.302246 
	C239.536957,572.302246 264.067841,572.302246 289.065979,572.302246 
	C288.010406,576.510437 287.009949,580.498962 285.929810,584.885376 
z"/>
<path fill="#44B883" opacity="1.000000" stroke="none" 
	d="
M118.997238,288.131989 
	C124.777420,288.132050 130.058258,288.132050 136.091751,288.132050 
	C134.482971,291.424988 133.192535,294.064453 131.903671,296.704712 
	C123.175995,314.583557 116.895126,333.329773 112.301468,352.648193 
	C111.669464,355.306091 110.919662,356.697510 107.862289,356.675964 
	C90.531319,356.553802 73.199074,356.613342 55.867298,356.591370 
	C55.224815,356.590546 54.582600,356.385864 52.997684,356.115173 
	C55.774158,349.639374 58.173939,343.348053 61.113224,337.319824 
	C69.177879,320.779755 79.113197,305.411438 91.312057,291.615387 
	C92.939621,289.774750 96.011696,288.458740 98.510323,288.286652 
	C105.144936,287.829803 111.831810,288.131805 118.997238,288.131989 
z"/>
<path fill="#44B883" opacity="1.000000" stroke="none" 
	d="
M446.385803,346.606079 
	C447.722687,349.833862 448.891541,352.719360 450.243896,356.057892 
	C448.445068,356.293304 447.188660,356.598450 445.931641,356.600922 
	C429.453949,356.633209 412.975983,356.587738 396.498535,356.657410 
	C393.739807,356.669098 391.837006,356.306610 391.083588,353.048645 
	C386.044983,331.260284 378.668060,310.301086 368.379059,290.405029 
	C368.168793,289.998505 368.193909,289.470215 367.953522,288.131958 
	C371.199768,288.131958 374.253479,288.131958 377.307190,288.131989 
	C386.295074,288.132080 395.297241,287.848846 404.262268,288.301575 
	C407.023376,288.441010 410.471863,289.894775 412.264221,291.928741 
	C426.554871,308.145966 437.796326,326.341614 446.385803,346.606079 
z"/>
<path fill="#44B783" opacity="1.000000" stroke="none" 
	d="
M403.024353,502.987030 
	C418.828217,502.987030 434.137329,502.987030 450.505768,502.987030 
	C448.233337,508.388580 446.290619,513.220520 444.182068,517.978943 
	C437.470062,533.126038 428.587738,546.949219 418.546387,560.084412 
	C416.557587,562.685974 414.654205,563.479736 411.181519,563.342834 
	C399.375916,562.877197 387.540833,563.158691 375.717010,563.155029 
	C373.934113,563.154480 372.151245,563.154968 369.522125,563.154968 
	C370.841614,560.197205 371.974335,558.026184 372.801575,555.744385 
	C378.460876,540.134521 384.307129,524.584167 389.506287,508.821075 
	C390.915833,504.547546 392.137390,502.019531 397.043854,502.934052 
	C398.814209,503.264069 400.697723,502.987030 403.024353,502.987030 
z"/>
<path fill="#44B783" opacity="1.000000" stroke="none" 
	d="
M122.116211,535.814575 
	C125.934364,545.030762 129.639923,553.873718 133.529190,563.155029 
	C120.339386,563.155029 107.516151,562.663757 94.759247,563.370361 
	C88.730972,563.704224 85.496475,561.509399 82.269646,557.013977 
	C70.391098,540.465576 60.334549,522.988831 53.192570,503.308258 
	C54.850929,503.179352 56.083363,503.001556 57.315994,503.000153 
	C74.123787,502.981018 90.932755,503.088928 107.738487,502.901520 
	C111.228218,502.862610 112.539566,503.918732 113.458725,507.321045 
	C116.012527,516.774048 119.116806,526.078247 122.116211,535.814575 
z"/>
<path fill="#44B783" opacity="1.000000" stroke="none" 
	d="
M229.948090,638.924927 
	C215.253342,635.832397 202.509567,629.234253 190.794739,620.453247 
	C173.609344,607.571716 160.403000,591.259277 149.031891,572.430054 
	C167.892822,572.430054 186.208191,572.430054 204.972519,572.430054 
	C205.923340,576.213440 206.931824,580.208191 207.931015,584.205322 
	C212.748962,603.478516 219.245163,622.064575 229.948090,638.924927 
z"/>
<path fill="#44B783" opacity="1.000000" stroke="none" 
	d="
M295.677094,583.606201 
	C296.635925,579.660034 297.474365,576.108826 298.375183,572.293213 
	C316.849030,572.293213 335.224243,572.293213 353.683777,572.293213 
	C343.315063,599.398743 295.269897,638.881836 272.648102,638.571106 
	C284.624481,622.011292 290.368469,603.120056 295.677094,583.606201 
z"/>
<path fill="#46B784" opacity="1.000000" stroke="none" 
	d="
M376.073547,601.090210 
	C357.582397,614.079407 338.487000,625.001160 316.774139,630.474670 
	C316.503448,630.066223 316.232788,629.657715 315.962097,629.249268 
	C319.043243,626.597900 322.174622,624.002319 325.196960,621.285583 
	C339.801605,608.157593 352.233093,593.224731 361.955994,576.146179 
	C363.770905,572.958374 365.814911,571.847046 369.417755,571.906860 
	C382.024902,572.116272 394.637695,571.987976 408.330200,571.987976 
	C398.330231,583.385071 387.700531,592.517151 376.073547,601.090210 
z"/>
<path fill="#46B784" opacity="1.000000" stroke="none" 
	d="
M165.783508,609.199097 
	C169.337830,612.736572 172.614563,616.049072 175.959229,619.291565 
	C179.138763,622.373901 182.389359,625.383057 186.330383,629.106140 
	C184.352463,629.432312 182.745316,630.236755 181.600571,629.807678 
	C148.621490,617.445007 119.414177,599.367371 95.472260,572.339722 
	C97.191750,572.203857 98.561157,572.005127 99.931053,572.001770 
	C110.580986,571.975830 121.242302,572.277161 131.876114,571.862366 
	C136.978500,571.663330 139.634964,573.454590 142.485107,577.685242 
	C149.711945,588.412354 157.795258,598.562439 165.783508,609.199097 
z"/>
</svg>